<svg width="224" height="224" viewBox="0 0 224 224" fill="none" xmlns="http://www.w3.org/2000/svg">
<path d="M155.75 7H68.25C34.4226 7 7 34.4226 7 68.25V155.75C7 189.577 34.4226 217 68.25 217H155.75C189.577 217 217 189.577 217 155.75V68.25C217 34.4226 189.577 7 155.75 7Z" stroke="url(#paint0_linear_104_79)" stroke-width="14"/>
<path d="M112 63.875C142.625 63.875 164.5 85.75 164.5 112C164.5 138.25 142.625 160.125 112 160.125C81.375 160.125 59.5 138.25 59.5 112" stroke="url(#paint1_linear_104_79)" stroke-width="18" stroke-linecap="round" stroke-linejoin="round"/>
<path opacity="0.9" d="M112 122.938C118.041 122.938 122.938 118.041 122.938 112C122.938 105.959 118.041 101.062 112 101.062C105.959 101.062 101.062 105.959 101.062 112C101.062 118.041 105.959 122.938 112 122.938Z" fill="white"/>
<defs>
<linearGradient id="paint0_linear_104_79" x1="7" y1="7" x2="217" y2="217" gradientUnits="userSpaceOnUse">
<stop stop-color="#7C3AED"/>
<stop offset="1" stop-color="#22D3EE"/>
</linearGradient>
<linearGradient id="paint1_linear_104_79" x1="7.00001" y1="7" x2="217" y2="217" gradientUnits="userSpaceOnUse">
<stop stop-color="#7C3AED"/>
<stop offset="1" stop-color="#22D3EE"/>
</linearGradient>
</defs>
</svg>
