<svg width="24" height="24" viewBox="0 0 24 24" fill="none" xmlns="http://www.w3.org/2000/svg">
<path fill-rule="evenodd" clip-rule="evenodd" d="M17.4988 14.382C17.1994 14.233 15.7313 13.515 15.458 13.415C15.1847 13.315 14.9858 13.267 14.7858 13.565C14.5869 13.862 14.0151 14.531 13.8413 14.729C13.6665 14.928 13.4926 14.952 13.1942 14.804C12.8958 14.654 11.9332 14.341 10.7927 13.329C9.90544 12.541 9.30557 11.568 9.13174 11.27C8.9579 10.973 9.11264 10.812 9.26236 10.664C9.39701 10.531 9.56079 10.317 9.71051 10.144C9.86022 9.97102 9.90946 9.84602 10.0089 9.64702C10.1094 9.44902 10.0592 9.27602 9.98382 9.12702C9.90946 8.97802 9.3126 7.51502 9.06341 6.92002C8.82125 6.34102 8.57507 6.42002 8.39219 6.41002C8.21736 6.40202 8.0184 6.40002 7.81945 6.40002C7.6205 6.40002 7.29695 6.47402 7.02364 6.77202C6.74932 7.06902 5.97863 7.78802 5.97863 9.25102C5.97863 10.713 7.04775 12.126 7.19747 12.325C7.34719 12.524 9.30255 15.525 12.2979 16.812C13.0113 17.118 13.567 17.301 14.0001 17.437C14.7155 17.664 15.3666 17.632 15.8811 17.555C16.4538 17.47 17.6475 16.836 17.8967 16.142C18.1459 15.448 18.1449 14.853 18.0705 14.729C17.9962 14.605 17.7972 14.531 17.4978 14.382M12.0497 21.785H12.0457C10.2666 21.7853 8.52018 21.3094 6.98947 20.407L6.62774 20.193L2.86773 21.175L3.87154 17.527L3.63541 17.153C2.64074 15.5774 2.11437 13.7538 2.11714 11.893C2.11915 6.44302 6.57449 2.00903 12.0537 2.00903C13.3588 2.00508 14.6516 2.25934 15.857 2.75702C17.0624 3.25469 18.1564 3.98586 19.0754 4.90803C20.0003 5.82432 20.7334 6.91411 21.2322 8.1143C21.731 9.31449 21.9856 10.6012 21.9813 11.9C21.9793 17.35 17.5239 21.785 12.0497 21.785ZM20.5022 3.48803C19.395 2.3793 18.0779 1.50013 16.627 0.901412C15.1761 0.302696 13.6204 -0.0036753 12.0497 3.32698e-05C5.46417 3.32698e-05 0.102491 5.33503 0.100481 11.892C0.0972397 13.9788 0.647298 16.0295 1.69512 17.837L0 24L6.33434 22.346C8.0869 23.2954 10.0503 23.7932 12.0457 23.794H12.0507C18.6363 23.794 23.9979 18.459 23.9999 11.901C24.0049 10.3383 23.6983 8.7901 23.0981 7.34602C22.4979 5.90195 21.6159 4.59066 20.5032 3.48803" fill="#F8FAFC" fill-opacity="0.7"/>
</svg>
